<svg data-v-0dd9719b="" version="1.0" xmlns="http://www.w3.org/2000/svg" xmlns:xlink="http://www.w3.org/1999/xlink" width="100%" height="100%" viewBox="0 0 340.000000 250.000000" preserveAspectRatio="xMidYMid meet" color-interpolation-filters="sRGB" style="margin: auto;"> <rect data-v-0dd9719b="" x="0" y="0" width="100%" height="100%" fill="#fff" fill-opacity="1" class="background"></rect> <rect data-v-0dd9719b="" x="0" y="0" width="100%" height="100%" fill="url(#watermark)" fill-opacity="1" class="watermarklayer"></rect> <g data-v-0dd9719b="" fill="#008abd" class="icon-text-wrapper icon-svg-group iconsvg" transform="translate(46.5,94.60794258117676)"><g class="iconsvg-imagesvg" transform="translate(0,0)"><g><rect fill="#008abd" fill-opacity="0" stroke-width="2" x="0" y="0" width="60" height="60.78411508459123" class="image-rect"></rect> <svg x="0" y="0" width="60" height="60.78411508459123" filtersec="colorsb5874235963" class="image-svg-svg primary" style="overflow: visible;"><svg xmlns="http://www.w3.org/2000/svg" viewBox="0 0 81.56427001953125 82.62999725341797"><g><path d="M45.63 45.68l-6.41 6.46A3 3 0 0 1 35 47.92L81.29 1.21c.54-.68.24-1.21-.76-1.21H2a2 2 0 0 0-2 2v78.63a2 2 0 0 0 2 2h78.53c1.1 0 1.37-.64.58-1.42z" fill="#008abd"></path></g></svg></svg> <!----></g></g> <g transform="translate(67,11.132057189941406)"><g data-gra="path-name" fill-rule="" class="tp-name iconsvg-namesvg"><g transform="scale(1)"><g><path d="M31.85-38.52L16.32-21.36 16.9-21.36 28.44 0 22.25 0 12.75-17.42 6.56-10.6 5.46 0 0 0 4.09-38.52 9.55-38.52 7.4-18.37 25.56-38.52 31.85-38.52ZM63.18-38.52L36-38.52 31.85 0 59.04 0 63.18-38.52ZM38.05-5.41L40.93-33.11 57.15-33.11 54.21-5.41 38.05-5.41ZM101.28-38.52L95.2-38.52 81.71-14.01 73.36-38.52 67.22-38.52 63.18 0 68.64 0 71.42-26.61 77.77-8.13 84.44-8.13 94.57-26.61 91.73 0 97.29 0 101.28-38.52ZM138.59 0L132.56 0 129.78-9.87 112.25-9.87 107.42 0 101.28 0 120.23-38.52 127.78-38.52 138.59 0ZM123.38-32.64L114.87-15.27 128.26-15.27 123.38-32.64ZM170.45-38.52L154.92-21.36 155.49-21.36 167.04 0 160.85 0 151.35-17.42 145.15-10.6 144.05 0 138.59 0 142.69-38.52 148.15-38.52 145.99-18.37 164.15-38.52 170.45-38.52ZM170.45 0L175.91 0 180-38.52 174.44-38.52 170.45 0Z" transform="translate(0, 38.52000045776367)"></path></g> <!----> <!----> <!----> <!----> <!----> <!----> <!----></g></g> <!----></g></g><defs v-gra="od"></defs></svg>